<svg width="2793" height="2793" viewBox="0 0 2793 2793" fill="none" xmlns="http://www.w3.org/2000/svg">
<path d="M396.75 1385.21C416.468 1371.61 467.461 1332.51 505.876 1340.33C544.29 1348.15 538.851 1341.01 575.227 1370.93C611.602 1400.84 639.138 1466.12 640.158 1471.9C641.178 1477.67 656.476 1544.65 657.156 1600.4C657.836 1656.15 656.892 1731.2 658.881 1747.77C660.87 1764.35 664.185 1824.35 666.506 1832.97C668.826 1841.59 670.484 1882.04 679.104 1896.29C687.723 1910.55 708.608 1928.45 728.83 1928.12C749.052 1927.78 765.628 1916.18 775.904 1907.23C784.125 1900.07 788.169 1895.63 789.164 1894.3C790.161 1923.39 797.187 1986.85 794.794 2008.79C791.802 2036.23 786.026 2066.49 742.473 2110.33C726.438 2120.72 694.476 2140.24 670.425 2139.04C646.373 2137.84 584.742 2110.23 556.933 2096.57C524.433 2079.19 454.095 2034.07 432.746 1992.62C411.397 1951.18 391.059 1920.24 383.559 1909.95L359.834 1832.97C351.287 1822.51 343.363 1766.34 327.31 1721.65C312.584 1680.67 317.831 1705.01 315.362 1687.74L307.299 1637.33V1574.34C307.855 1560.48 310.371 1531.48 315.979 1526.27C321.587 1521.06 328.815 1504.29 331.729 1496.56L348.476 1453.54C357.994 1435.29 380.976 1396.09 396.75 1385.21ZM442.236 1548.4C437.815 1539.92 427.268 1536.75 418.906 1541.4L402.688 1550.41C395.221 1554.56 391.973 1563.55 395.379 1571.39C418.522 1624.61 472.27 1730.54 489.903 1764.94C491.778 1768.6 492.885 1772.5 493.191 1776.6C497.681 1836.57 506.785 1995.61 508.178 1997.2C513.825 2003.62 533.675 2008.06 549.17 2013.66C555.548 2015.97 564.096 2010.83 563.855 2004.05L555.841 1778.14C555.545 1769.8 553.39 1761.63 549.534 1754.24L442.236 1548.4ZM349.029 1591.13C346.533 1586.08 339.738 1585.12 335.943 1589.29L325.237 1601.04C323.178 1603.3 322.586 1606.54 323.717 1609.38C342.589 1656.78 379.392 1747.43 395.733 1781.35C397.518 1785.05 398.649 1788.99 398.979 1793.08C403.481 1848.94 412.632 1948.73 414.022 1950.31C419.563 1956.6 433.718 1969.74 446.053 1980.41C451.312 1984.96 459.108 1980.84 458.544 1973.91L443.312 1786.88C442.994 1782.98 441.94 1779.17 440.206 1775.66L349.029 1591.13Z" fill="#FAC713"/>
<path d="M590.726 996.743C443.248 1004.38 333.883 1091.66 288.024 1131.1C284.057 1135.24 275.656 1155.33 273.789 1202.62L273.728 1204.17C271.388 1263.43 267.555 1360.5 277.744 1426.42H283.569C285.843 1405.77 291.206 1363.01 294.467 1357.21C297.728 1351.42 304.282 1340.76 307.15 1336.15C304.433 1324.75 303.934 1297.01 323.684 1277.26C348.372 1252.58 442.95 1197.68 502.897 1194.25C550.855 1191.51 630.215 1292.17 663.9 1342.84C693.925 1383.03 757.112 1465.09 769.659 1471.73C782.207 1478.37 794.663 1467.4 799.322 1461.08C801.008 1420.2 805.081 1336.1 807.885 1326.68C811.391 1314.92 843.983 1255.13 852.974 1247.97L851.105 1245.73C791.461 1174.32 686.441 1048.59 629.019 1006.94C617.983 998.936 604.34 996.038 590.726 996.743Z" fill="#FAC713"/>
<path d="M500.855 586.918C459.32 659.032 499.242 777.284 520.689 829.672C526.617 844.152 520.036 861.114 505.559 867.05L387.674 915.386C381.818 917.787 375.175 914.234 373.807 908.054C369.089 886.737 362.103 856.386 366.673 835.364L417.373 721.078L480.205 621.087L500.855 586.918Z" fill="#FAC713"/>
<path d="M1665.16 913.281L1040.27 1006.29C1025.67 1008.46 1010.94 1004.55 999.778 994.894C982.852 980.26 953.258 954.075 904.639 910.328C809.699 824.903 624.272 600.628 638.346 516.824C646.912 465.818 711.891 293.473 1051.22 359.074C1337.16 414.354 1522.72 658.257 1674.18 893.458C1679.28 901.379 1674.48 911.894 1665.16 913.281Z" fill="#FAC713"/>
<path d="M1514.77 327.629C1351.6 223.287 1227.56 179.003 1148.23 174.689C1017.65 174.689 874.212 247.904 818.816 284.511C865.049 260.974 989.037 220.961 1115.13 249.206C1280.77 286.308 1466.05 358.889 1818.2 834.284C1844.68 870.034 1886.93 891.132 1931.4 889.82L2379.85 876.596L2375.36 846.083L2317.79 763.814C2201.93 761.497 1964.31 756.168 1940.68 753.387C1911.14 749.911 1730.33 465.467 1514.77 327.629Z" fill="#FAC713"/>
</svg>
