<svg width="2793" height="2793" viewBox="0 0 2793 2793" fill="none" xmlns="http://www.w3.org/2000/svg">
<path d="M790.428 1532.58L796.766 1528.93L799.205 1463.02C801.197 1426.87 805.88 1348.9 808.67 1326.18C811.46 1303.46 838.584 1263.27 851.797 1246.01L889.784 1195.73C920.446 1161.47 984.824 1091.23 997.039 1084.38C1009.25 1077.53 1020 1074.08 1023.85 1073.21L1138.18 1056.82L1302.05 1035.96L1500.92 1014.36L1726.23 991.647L1984.31 969.675L2120.99 958.875L2250.59 950.682L2407 943.606L2382.91 882.458L2377.34 846.891L2314.94 762.054C2245.45 652.857 2098.73 509.743 2034.05 451.836C2019.39 436.043 1964.34 390.017 1861.46 332.26C1758.58 274.503 1533.57 195.388 1433.92 163.05C1349.69 158.913 1140.17 162.598 975.926 210.428C770.617 270.216 634.121 428.146 512.29 574.794C414.825 692.113 360.323 845.642 345.256 907.741L291.689 1125.86L281.405 1148.57C277.405 1173.86 269.406 1224.94 269.406 1227C269.406 1229.05 271.121 1314.62 271.978 1357.15L284.386 1556.27L307.777 1572.89C308.393 1559.14 310.116 1531.22 312.086 1529.49C314.548 1527.34 316.087 1522.42 322.858 1513.49C328.274 1506.35 340.298 1470.92 345.632 1454.09C347.848 1417.9 358.456 1371.1 363.483 1352.22C372.346 1317.51 405.338 1306.57 420.727 1305.44C472.924 1299.04 517.98 1278.36 533.984 1268.82C549.249 1279.9 589.587 1332.32 607.847 1357.15L684.481 1463.02L755.274 1521.25L777.749 1531.62L790.428 1532.58Z" fill="#FF0000"/>
<path d="M1451.79 1388.18C1420.73 1408.89 1329.69 1411.44 1295.51 1412.99C1294.88 1413.81 1293.26 1413.06 1291.79 1403.58C1289.94 1391.73 1282.57 1382.25 1277.56 1374.87C1273.56 1368.97 1261.32 1358.52 1255.7 1354.03L1214.09 1315.87L1345.52 1253.97L1531.48 1237.64C1525.86 1245.54 1513.57 1262.35 1509.35 1266.35C1505.14 1270.36 1489.28 1297.65 1481.87 1310.8L1463 1354.03L1451.79 1388.18Z" fill="#FF0000"/>
<path d="M2048.21 1299.69C2011.33 1289.91 2032.84 1218.98 2048.21 1184.73L2170.38 1170.85C2155.39 1179.18 2149.75 1212.49 2140.95 1246.93C2130.63 1287.3 2094.3 1311.91 2048.21 1299.69Z" fill="#FF0000"/>
<path d="M324.159 1600.5L334.865 1588.75C338.659 1584.59 345.455 1585.54 347.951 1590.59L439.128 1775.12C440.862 1778.63 441.915 1782.44 442.233 1786.34L457.466 1973.37C458.03 1980.3 450.234 1984.43 444.974 1979.87C432.64 1969.2 418.485 1956.06 412.945 1949.77C411.554 1948.19 402.403 1848.4 397.901 1792.55C397.571 1788.45 396.44 1784.51 394.656 1780.81C378.314 1746.9 341.511 1656.24 322.639 1608.84C321.508 1606 322.099 1602.76 324.159 1600.5Z" fill="#FF0000"/>
<path d="M401.611 1549.87L417.828 1540.86C426.19 1536.21 436.737 1539.38 441.158 1547.86L548.456 1753.7C552.313 1761.1 554.467 1769.26 554.763 1777.6L562.777 2003.52C563.018 2010.29 554.47 2015.43 548.091 2013.12C532.597 2007.52 512.747 2003.08 507.1 1996.66C505.707 1995.07 496.603 1836.03 492.113 1776.06C491.806 1771.96 490.7 1768.06 488.825 1764.4C471.192 1730 417.444 1624.07 394.301 1570.85C390.894 1563.01 394.143 1554.02 401.611 1549.87Z" fill="#FF0000"/>
</svg>
